<mxfile host="65bd71144e">
    <diagram id="TF5GivrcqcTgt0RBai22" name="Page-1">
        <mxGraphModel dx="1226" dy="820" grid="1" gridSize="10" guides="1" tooltips="1" connect="1" arrows="1" fold="1" page="1" pageScale="1" pageWidth="850" pageHeight="1100" math="0" shadow="0">
            <root>
                <mxCell id="0"/>
                <mxCell id="1" parent="0"/>
                <mxCell id="8" style="edgeStyle=none;html=1;fontSize=18;startArrow=none;startFill=0;endArrow=classic;endFill=1;" edge="1" parent="1" source="2" target="4">
                    <mxGeometry relative="1" as="geometry"/>
                </mxCell>
                <mxCell id="9" style="edgeStyle=none;html=1;fontSize=18;startArrow=none;startFill=0;endArrow=classic;endFill=1;" edge="1" parent="1" source="2" target="5">
                    <mxGeometry relative="1" as="geometry"/>
                </mxCell>
                <mxCell id="2" value="&lt;font style=&quot;font-size: 24px&quot;&gt;基于&lt;span lang=&quot;EN-US&quot; style=&quot;font-family: &amp;#34;times new roman&amp;#34; , serif&quot;&gt;Vue+SpringBoot&lt;/span&gt;的博客平台&lt;/font&gt;" style="rounded=1;whiteSpace=wrap;html=1;" vertex="1" parent="1">
                    <mxGeometry x="400" y="280" width="240" height="120" as="geometry"/>
                </mxCell>
                <mxCell id="19" style="edgeStyle=entityRelationEdgeStyle;html=1;fontSize=14;startArrow=none;startFill=0;endArrow=classic;endFill=1;" edge="1" parent="1" source="4" target="10">
                    <mxGeometry relative="1" as="geometry"/>
                </mxCell>
                <mxCell id="20" style="edgeStyle=entityRelationEdgeStyle;html=1;fontSize=14;startArrow=none;startFill=0;endArrow=classic;endFill=1;" edge="1" parent="1" source="4" target="11">
                    <mxGeometry relative="1" as="geometry"/>
                </mxCell>
                <mxCell id="21" style="edgeStyle=entityRelationEdgeStyle;html=1;fontSize=14;startArrow=none;startFill=0;endArrow=classic;endFill=1;" edge="1" parent="1" source="4" target="12">
                    <mxGeometry relative="1" as="geometry"/>
                </mxCell>
                <mxCell id="22" style="edgeStyle=entityRelationEdgeStyle;html=1;fontSize=14;startArrow=none;startFill=0;endArrow=classic;endFill=1;" edge="1" parent="1" source="4" target="13">
                    <mxGeometry relative="1" as="geometry"/>
                </mxCell>
                <mxCell id="23" style="edgeStyle=entityRelationEdgeStyle;html=1;fontSize=14;startArrow=none;startFill=0;endArrow=classic;endFill=1;" edge="1" parent="1" source="4" target="16">
                    <mxGeometry relative="1" as="geometry"/>
                </mxCell>
                <mxCell id="24" style="edgeStyle=entityRelationEdgeStyle;html=1;fontSize=14;startArrow=none;startFill=0;endArrow=classic;endFill=1;" edge="1" parent="1" source="4" target="17">
                    <mxGeometry relative="1" as="geometry"/>
                </mxCell>
                <mxCell id="25" style="edgeStyle=entityRelationEdgeStyle;html=1;fontSize=14;startArrow=none;startFill=0;endArrow=classic;endFill=1;" edge="1" parent="1" source="4" target="18">
                    <mxGeometry relative="1" as="geometry"/>
                </mxCell>
                <mxCell id="4" value="&lt;font style=&quot;font-size: 18px&quot;&gt;前台&lt;/font&gt;" style="rounded=1;whiteSpace=wrap;html=1;fontSize=24;" vertex="1" parent="1">
                    <mxGeometry x="280" y="240" width="80" height="200" as="geometry"/>
                </mxCell>
                <mxCell id="33" style="edgeStyle=entityRelationEdgeStyle;html=1;fontSize=14;startArrow=none;startFill=0;endArrow=classic;endFill=1;" edge="1" parent="1" source="5" target="26">
                    <mxGeometry relative="1" as="geometry"/>
                </mxCell>
                <mxCell id="35" style="edgeStyle=entityRelationEdgeStyle;html=1;fontSize=14;startArrow=none;startFill=0;endArrow=classic;endFill=1;" edge="1" parent="1" source="5" target="27">
                    <mxGeometry relative="1" as="geometry"/>
                </mxCell>
                <mxCell id="36" style="edgeStyle=entityRelationEdgeStyle;html=1;fontSize=14;startArrow=none;startFill=0;endArrow=classic;endFill=1;" edge="1" parent="1" source="5" target="28">
                    <mxGeometry relative="1" as="geometry"/>
                </mxCell>
                <mxCell id="37" style="edgeStyle=entityRelationEdgeStyle;html=1;fontSize=14;startArrow=none;startFill=0;endArrow=classic;endFill=1;" edge="1" parent="1" source="5" target="29">
                    <mxGeometry relative="1" as="geometry"/>
                </mxCell>
                <mxCell id="38" style="edgeStyle=entityRelationEdgeStyle;html=1;fontSize=14;startArrow=none;startFill=0;endArrow=classic;endFill=1;" edge="1" parent="1" source="5" target="30">
                    <mxGeometry relative="1" as="geometry"/>
                </mxCell>
                <mxCell id="39" style="edgeStyle=entityRelationEdgeStyle;html=1;fontSize=14;startArrow=none;startFill=0;endArrow=classic;endFill=1;" edge="1" parent="1" source="5" target="31">
                    <mxGeometry relative="1" as="geometry"/>
                </mxCell>
                <mxCell id="40" style="edgeStyle=entityRelationEdgeStyle;html=1;fontSize=14;startArrow=none;startFill=0;endArrow=classic;endFill=1;" edge="1" parent="1" source="5" target="32">
                    <mxGeometry relative="1" as="geometry"/>
                </mxCell>
                <mxCell id="5" value="&lt;font style=&quot;font-size: 18px&quot;&gt;后台&lt;/font&gt;" style="rounded=1;whiteSpace=wrap;html=1;fontSize=24;" vertex="1" parent="1">
                    <mxGeometry x="680" y="240" width="80" height="200" as="geometry"/>
                </mxCell>
                <mxCell id="10" value="&lt;font style=&quot;font-size: 14px&quot;&gt;账户注册、登陆&lt;/font&gt;" style="rounded=1;whiteSpace=wrap;html=1;fontSize=24;" vertex="1" parent="1">
                    <mxGeometry x="40" y="80" width="160" height="40" as="geometry"/>
                </mxCell>
                <mxCell id="11" value="&lt;font style=&quot;font-size: 14px&quot;&gt;首页推送，精品文章&lt;/font&gt;" style="rounded=1;whiteSpace=wrap;html=1;fontSize=24;" vertex="1" parent="1">
                    <mxGeometry x="40" y="160" width="160" height="40" as="geometry"/>
                </mxCell>
                <mxCell id="12" value="&lt;font style=&quot;font-size: 14px&quot;&gt;文章详情&lt;/font&gt;" style="rounded=1;whiteSpace=wrap;html=1;fontSize=24;" vertex="1" parent="1">
                    <mxGeometry x="40" y="240" width="160" height="40" as="geometry"/>
                </mxCell>
                <mxCell id="13" value="&lt;font style=&quot;font-size: 14px&quot;&gt;文章搜索&lt;/font&gt;" style="rounded=1;whiteSpace=wrap;html=1;fontSize=24;" vertex="1" parent="1">
                    <mxGeometry x="40" y="320" width="160" height="40" as="geometry"/>
                </mxCell>
                <mxCell id="16" value="&lt;font style=&quot;font-size: 14px&quot;&gt;文章分类查看&lt;/font&gt;" style="rounded=1;whiteSpace=wrap;html=1;fontSize=24;" vertex="1" parent="1">
                    <mxGeometry x="40" y="400" width="160" height="40" as="geometry"/>
                </mxCell>
                <mxCell id="17" value="&lt;font style=&quot;font-size: 14px&quot;&gt;文章发布&lt;/font&gt;" style="rounded=1;whiteSpace=wrap;html=1;fontSize=24;" vertex="1" parent="1">
                    <mxGeometry x="40" y="480" width="160" height="40" as="geometry"/>
                </mxCell>
                <mxCell id="18" value="&lt;font style=&quot;font-size: 14px&quot;&gt;评论、留言&lt;/font&gt;" style="rounded=1;whiteSpace=wrap;html=1;fontSize=24;" vertex="1" parent="1">
                    <mxGeometry x="40" y="560" width="160" height="40" as="geometry"/>
                </mxCell>
                <mxCell id="26" value="&lt;font style=&quot;font-size: 14px&quot;&gt;管理员账户/普通账户&lt;/font&gt;" style="rounded=1;whiteSpace=wrap;html=1;fontSize=24;" vertex="1" parent="1">
                    <mxGeometry x="840" y="80" width="160" height="40" as="geometry"/>
                </mxCell>
                <mxCell id="27" value="&lt;font style=&quot;font-size: 14px&quot;&gt;文章管理&lt;/font&gt;" style="rounded=1;whiteSpace=wrap;html=1;fontSize=24;" vertex="1" parent="1">
                    <mxGeometry x="840" y="160" width="160" height="40" as="geometry"/>
                </mxCell>
                <mxCell id="28" value="&lt;font style=&quot;font-size: 14px&quot;&gt;分类管理&lt;/font&gt;" style="rounded=1;whiteSpace=wrap;html=1;fontSize=24;" vertex="1" parent="1">
                    <mxGeometry x="840" y="240" width="160" height="40" as="geometry"/>
                </mxCell>
                <mxCell id="29" value="&lt;font style=&quot;font-size: 14px&quot;&gt;用户个性化设置&lt;/font&gt;" style="rounded=1;whiteSpace=wrap;html=1;fontSize=24;" vertex="1" parent="1">
                    <mxGeometry x="840" y="320" width="160" height="40" as="geometry"/>
                </mxCell>
                <mxCell id="30" value="&lt;font style=&quot;font-size: 14px&quot;&gt;文章审核&lt;/font&gt;" style="rounded=1;whiteSpace=wrap;html=1;fontSize=24;" vertex="1" parent="1">
                    <mxGeometry x="840" y="400" width="160" height="40" as="geometry"/>
                </mxCell>
                <mxCell id="31" value="&lt;font style=&quot;font-size: 14px&quot;&gt;评论管理&lt;/font&gt;" style="rounded=1;whiteSpace=wrap;html=1;fontSize=24;" vertex="1" parent="1">
                    <mxGeometry x="840" y="480" width="160" height="40" as="geometry"/>
                </mxCell>
                <mxCell id="32" value="&lt;font style=&quot;font-size: 14px&quot;&gt;用户管理&lt;/font&gt;" style="rounded=1;whiteSpace=wrap;html=1;fontSize=24;" vertex="1" parent="1">
                    <mxGeometry x="840" y="560" width="160" height="40" as="geometry"/>
                </mxCell>
            </root>
        </mxGraphModel>
    </diagram>
</mxfile>